<svg xmlns="http://www.w3.org/2000/svg" viewBox="0 0 700 980" width="700" height="980">
  <defs>
    <style>
      .bg    { fill: #0d1117; }
      .bar   { fill: #161b22; }
      .sep   { stroke: #21262d; stroke-width: 1; }
      .mono  { font-family: 'JetBrains Mono', 'Fira Code', 'Courier New', monospace; font-size: 13px; }
      .g     { fill: #3fb950; }
      .b     { fill: #58a6ff; }
      .y     { fill: #e3b341; }
      .r     { fill: #f85149; }
      .p     { fill: #bc8cff; }
      .d     { fill: #8b949e; }
      .w     { fill: #c9d1d9; }
      .dot-r { fill: #ff5f57; }
      .dot-y { fill: #febc2e; }
      .dot-g { fill: #28c840; }
      .cursor { fill: #3fb950; animation: blink 1s step-start infinite; }
      @keyframes blink {
        0%, 100% { opacity: 1; }
        50%       { opacity: 0; }
      }
    </style>
  </defs>

  <!-- Background -->
  <rect width="700" height="980" rx="12" class="bg"/>

  <!-- Title bar -->
  <rect width="700" height="36" rx="12" class="bar"/>
  <rect y="24" width="700" height="12" class="bar"/>
  <circle cx="20" cy="18" r="6" class="dot-r"/>
  <circle cx="40" cy="18" r="6" class="dot-y"/>
  <circle cx="60" cy="18" r="6" class="dot-g"/>
  <text x="350" y="23" text-anchor="middle" class="mono d" font-size="12">javier@portafolio:~</text>

  <!-- Separator -->
  <line x1="0" y1="36" x2="700" y2="36" class="sep"/>

  <!-- Block 1: prompt + whoami -->
  <text x="20" y="65" class="mono g">┌──(</text>
  <text x="71" y="65" class="mono b">javier</text>
  <text x="117" y="65" class="mono g">㉿</text>
  <text x="135" y="65" class="mono r">portafolio</text>
  <text x="215" y="65" class="mono g">)-[</text>
  <text x="241" y="65" class="mono y">~/profile</text>
  <text x="305" y="65" class="mono g">]</text>
  <text x="20" y="83" class="mono g">└─$</text>
  <text x="52" y="83" class="mono w"> cat whoami.txt</text>

  <line x1="0" y1="95" x2="700" y2="95" class="sep"/>

  <!-- whoami output -->
  <text x="20" y="118" class="mono d">  Hola, soy</text>
  <text x="98" y="118" class="mono g"> Javier Vásquez</text>
  <text x="230" y="118" class="mono w"> — Full-Stack Dev &amp; Security Researcher.</text>
  <text x="20" y="136" class="mono d">  Apasionado por construir productos robustos y encontrar lo que los rompe.</text>
  <text x="20" y="154" class="mono d">  React Native · Node.js · MySQL · Kali Linux · Burp Suite</text>

  <line x1="0" y1="168" x2="700" y2="168" class="sep"/>

  <!-- Block 2: ls skills -->
  <text x="20" y="190" class="mono g">└─$</text>
  <text x="52" y="190" class="mono w"> cat skills.json</text>

  <text x="20" y="212" class="mono w">{</text>
  <text x="20" y="230" class="mono b">  "role"</text><text x="75" y="230" class="mono w">    :</text><text x="95" y="230" class="mono y"> "Full-Stack Dev &amp; Security Researcher"</text><text x="390" y="230" class="mono w">,</text>
  <text x="20" y="248" class="mono b">  "focus"</text><text x="75" y="248" class="mono w">   :</text><text x="95" y="248" class="mono y"> ["Pentesting", "CTF Player", "Web Security"]</text><text x="420" y="248" class="mono w">,</text>
  <text x="20" y="266" class="mono b">  "stack"</text><text x="75" y="266" class="mono w">   :</text><text x="95" y="266" class="mono y"> ["React", "Next.js", "Node.js", "React Native"]</text><text x="435" y="266" class="mono w">,</text>
  <text x="20" y="284" class="mono b">  "tools"</text><text x="75" y="284" class="mono w">   :</text><text x="95" y="284" class="mono y"> ["Nmap", "Burp Suite", "Metasploit", "Wireshark"]</text><text x="444" y="284" class="mono w">,</text>
  <text x="20" y="302" class="mono b">  "os"</text><text x="57" y="302" class="mono w">      :</text><text x="77" y="302" class="mono p"> "Kali Linux / Parrot OS"</text><text x="257" y="302" class="mono w">,</text>
  <text x="20" y="320" class="mono b">  "status"</text><text x="82" y="320" class="mono w">  :</text><text x="102" y="320" class="mono g"> "Siempre aprendiendo..."</text>
  <text x="20" y="338" class="mono w">}</text>

  <line x1="0" y1="352" x2="700" y2="352" class="sep"/>

  <!-- Block 3: projects -->
  <text x="20" y="374" class="mono g">└─$</text>
  <text x="52" y="374" class="mono w"> cat projects.json | jq '.[]'</text>

  <text x="20" y="396" class="mono g">── GoZipp ─────────────────────────────</text>
  <text x="20" y="414" class="mono d">  status :</text><text x="94" y="414" class="mono y"> En Desarrollo</text>
  <text x="20" y="432" class="mono d">  stack  :</text><text x="94" y="432" class="mono w"> React Native · Node.js · MySQL</text>
  <text x="20" y="450" class="mono d">  desc   :</text><text x="94" y="450" class="mono w"> Plataforma moto-taxi con rastreo en tiempo real.</text>

  <text x="20" y="472" class="mono g">── Iglesia App ────────────────────────</text>
  <text x="20" y="490" class="mono d">  status :</text><text x="94" y="490" class="mono y"> En Producción</text>
  <text x="20" y="508" class="mono d">  stack  :</text><text x="94" y="508" class="mono w"> React · Express · PostgreSQL · JWT</text>
  <text x="20" y="526" class="mono d">  desc   :</text><text x="94" y="526" class="mono w"> Gestión de iglesias con roles y solicitudes.</text>

  <text x="20" y="548" class="mono g">── AI Waste Classifier ────────────────</text>
  <text x="20" y="566" class="mono d">  status :</text><text x="94" y="566" class="mono y"> Investigación</text>
  <text x="20" y="584" class="mono d">  stack  :</text><text x="94" y="584" class="mono w"> Python · TensorFlow · Computer Vision</text>

  <line x1="0" y1="598" x2="700" y2="598" class="sep"/>

  <!-- Block 4: audits -->
  <text x="20" y="620" class="mono g">└─$</text>
  <text x="52" y="620" class="mono w"> cat audits.log</text>

  <text x="20" y="642" class="mono g">[COMPLETADO]</text><text x="120" y="642" class="mono d"> Reconocimiento Web         </text><text x="330" y="642" class="mono w">:: Nmap · Gobuster · Burp Suite</text>
  <text x="20" y="660" class="mono g">[COMPLETADO]</text><text x="120" y="660" class="mono d"> CTF — TryHackMe            </text><text x="330" y="660" class="mono w">:: Metasploit · John the Ripper</text>
  <text x="20" y="678" class="mono y">[EN PROGRESO]</text><text x="124" y="678" class="mono d"> Lab de Escaneo de Red      </text><text x="334" y="678" class="mono w">:: Wireshark · Nmap</text>
  <text x="20" y="700" class="mono g">[COMPLETADO]</text><text x="120" y="700" class="mono d"> Meta Bug Bounty — WhatsApp </text><text x="330" y="700" class="mono g">:: acknowledged by Meta ✓</text>
  <text x="20" y="718" class="mono d">             └──</text><text x="80" y="718" class="mono w"> Android 15 · Burp Suite · ADB</text>
  <text x="20" y="736" class="mono d">             └──</text><text x="80" y="736" class="mono r"> FLAG_SECURE bypass en View Once (screen mirroring)</text>

  <line x1="0" y1="750" x2="700" y2="750" class="sep"/>

  <!-- Block 5: contact -->
  <text x="20" y="772" class="mono g">└─$</text>
  <text x="52" y="772" class="mono w"> cat contact.txt</text>

  <text x="20" y="794" class="mono d">  Email    :</text><text x="98" y="794" class="mono b"> jastivenv@gmail.com</text>
  <text x="20" y="812" class="mono d">  GitHub   :</text><text x="98" y="812" class="mono b"> github.com/Javenquezca</text>
  <text x="20" y="830" class="mono d">  LinkedIn :</text><text x="98" y="830" class="mono b"> linkedin.com/in/javier-stiven-vasquez-claros</text>
  <text x="20" y="852" class="mono d">  Disponible para freelance y oportunidades full-time.</text>

  <line x1="0" y1="866" x2="700" y2="866" class="sep"/>

  <!-- Block 6: quote -->
  <text x="20" y="890" class="mono p">  "The quieter you become, the more you are able to hear."</text>
  <text x="20" y="908" class="mono d">  -- Kali Linux motto</text>

  <line x1="0" y1="922" x2="700" y2="922" class="sep"/>

  <!-- Final prompt with blinking cursor -->
  <text x="20" y="952" class="mono g">┌──(</text>
  <text x="71" y="952" class="mono b">javier</text>
  <text x="117" y="952" class="mono g">㉿</text>
  <text x="135" y="952" class="mono r">portafolio</text>
  <text x="215" y="952" class="mono g">)-[</text>
  <text x="241" y="952" class="mono y">~/profile</text>
  <text x="305" y="952" class="mono g">]</text>
  <text x="20" y="970" class="mono g">└─$</text>
  <rect x="52" y="957" width="9" height="15" class="cursor"/>
</svg>
